<svg width="92" height="92" viewBox="0 0 92 92" fill="none" xmlns="http://www.w3.org/2000/svg">
<path d="M46 5.75C33.2961 5.75 23 16.0461 23 28.75C23 41.4539 33.2961 51.75 46 51.75C58.7039 51.75 69 41.4539 69 28.75C69 16.0461 58.7039 5.75 46 5.75ZM46 43.125C38.0578 43.125 31.625 36.6922 31.625 28.75C31.625 20.8078 38.0578 14.375 46 14.375C53.9422 14.375 60.375 20.8078 60.375 28.75C60.375 36.6922 53.9422 43.125 46 43.125Z" fill="black"/>
<path d="M34.8055 55.2359C31.3734 53.7805 28.3008 51.7141 25.6773 49.0726C25.4258 48.8211 25.1742 48.5695 24.9406 48.3L11.5 71.875H28.75L37.375 86.25L46 67.2391L50.582 57.1406C49.0727 57.3742 47.5453 57.5 46 57.5C42.1187 57.5 38.3633 56.7453 34.8055 55.2359Z" fill="black"/>
<path d="M67.0773 48.318C66.8438 48.5695 66.5922 48.8391 66.3406 49.0906C63.7172 51.7141 60.6445 53.7984 57.2305 55.2359L52.8281 64.9031L48.893 73.6L54.625 86.25L63.25 71.875H80.5L67.0773 48.318Z" fill="black"/>
</svg>
