<svg width="92" height="92" viewBox="0 0 92 92" fill="none" xmlns="http://www.w3.org/2000/svg">
<path d="M80.5 66.0352V23.1977C80.5 21.5086 79.0805 20.125 77.4094 20.125H14.5906C12.9195 20.125 11.5 21.4906 11.5 23.1977V66.0352H2.85703C2.85703 67.8141 4.63593 69.4133 6.25312 70.1141C8.21171 70.9406 11.5 71.875 15.0937 71.875H76.9062C80.5 71.875 83.7703 71.0664 85.5851 70.2938C87.2922 69.575 89.143 67.8859 89.143 66.0352H80.5ZM46 21.5625C46.3953 21.5625 46.7187 21.8859 46.7187 22.2812C46.7187 22.6766 46.3953 23 46 23C45.6047 23 45.2812 22.6766 45.2812 22.2812C45.2812 21.8859 45.6047 21.5625 46 21.5625ZM14.7344 24.4734H77.2656C77.4633 24.4734 77.625 24.6352 77.625 24.8328V62.8008C77.625 62.9984 77.4633 63.1602 77.2656 63.1602H14.7344C14.5367 63.1602 14.375 62.9984 14.375 62.8008V24.8328C14.375 24.6172 14.5367 24.4734 14.7344 24.4734ZM53.6008 67.4727H38.3992C37.4648 67.4727 36.6562 66.3945 36.6562 66.125H55.3437C55.3437 66.3945 54.8047 67.4727 53.6008 67.4727Z" fill="#11144C"/>
</svg>
