<svg width="92" height="92" viewBox="0 0 92 92" fill="none" xmlns="http://www.w3.org/2000/svg">
<path d="M46 8.625C25.3582 8.625 8.625 25.3584 8.625 46C8.625 66.6416 25.3582 83.375 46 83.375C66.6416 83.375 83.375 66.6416 83.375 46C83.375 25.3584 66.6416 8.625 46 8.625ZM42.1279 77.8045C35.0367 76.9553 28.4756 73.7809 23.3472 68.6527C17.2964 62.6019 13.9642 54.5571 13.9642 46C13.9642 38.2968 16.666 31.0098 21.6191 25.2175C21.7467 26.7479 22.0617 28.3886 21.981 29.5615C21.6863 33.8371 21.2644 36.513 23.7671 40.1203C24.7421 41.5252 24.9816 43.5394 25.4562 45.1655C25.9203 46.7565 27.7745 47.591 29.0533 48.5711C31.6334 50.5493 34.1018 52.8486 36.8377 54.5896C38.6434 55.7387 39.7713 56.3103 39.2425 58.5138C38.8172 60.2859 38.6984 61.3775 37.7816 62.9562C37.5019 63.438 38.8377 66.5352 39.2822 66.9798C40.6295 68.3269 41.9664 69.5628 43.435 70.7757C45.7118 72.6568 43.2138 75.1011 42.1279 77.8045ZM68.6527 68.6527C64.0467 73.2586 58.2849 76.2869 52.0215 77.4719C52.9092 75.2768 54.4897 73.3265 55.9558 72.1959C57.231 71.212 58.8283 69.3193 59.4944 67.8202C60.1599 66.323 61.0416 65.0251 61.934 63.6484C63.2035 61.69 58.804 58.7364 57.3783 58.1174C54.1702 56.7246 51.7552 54.8453 48.9041 52.8391C46.8727 51.4099 42.7486 53.5855 40.4552 52.5845C37.3141 51.2129 34.7262 48.8297 31.9959 46.7736C29.1784 44.6516 29.3146 42.1779 29.3146 39.0475C31.5215 39.1289 34.661 38.4368 36.1262 40.2115C36.5885 40.7716 38.1782 43.2738 39.2423 42.3847C40.1116 41.6582 38.5981 38.7462 38.3058 38.0616C37.4064 35.9565 40.3549 35.1356 41.8641 33.7081C43.8335 31.8458 48.058 28.9252 47.7241 27.5903C47.3902 26.2554 43.4971 22.4733 41.2106 23.0634C40.8679 23.1518 37.851 26.3152 37.2681 26.8115C37.2835 25.779 37.299 24.7467 37.3148 23.7143C37.3247 23.0624 36.0987 22.3932 36.1556 21.9727C36.2994 20.9101 39.2574 18.9815 39.9932 18.1351C39.4777 17.813 37.7186 16.302 37.1861 16.5237C35.8971 17.061 34.4412 17.4311 33.1522 17.9682C33.1522 17.5211 33.0979 17.1012 33.0332 16.6865C35.6292 15.5381 38.3675 14.7433 41.1749 14.3232L43.7056 15.3403L45.4924 17.4608L47.2756 19.2995L48.8344 19.8017L51.3103 17.4667L50.6719 15.7997V14.3013C55.5684 15.0125 60.1924 16.8392 64.2422 19.656C63.5177 19.7209 62.7215 19.8274 61.8233 19.9417C61.4522 19.7225 60.9762 19.623 60.5718 19.4704C61.7453 21.9936 62.9693 24.4819 64.2129 26.9716C65.5414 29.6312 68.4883 32.4839 69.0058 35.2913C69.6156 38.6005 69.1924 41.6063 69.5261 45.4996C69.8474 49.2487 73.7531 53.5086 73.7531 53.5086C73.7531 53.5086 75.5566 54.123 77.0565 53.9089C75.6583 59.4403 72.7919 64.513 68.6527 68.6527Z" fill="#11144C"/>
</svg>
