<svg width="174" height="55" viewBox="0 0 174 55" fill="none" xmlns="http://www.w3.org/2000/svg">
<rect width="55" height="55" rx="10" fill="#11144C"/>
<path d="M21.3794 25.02L13.5994 28.04L21.3794 31.08V33.72L11.6794 29.32V26.78L21.3794 22.36V25.02ZM25.3697 35.4H22.8297L28.6097 19.62H31.1697L25.3697 35.4ZM42.3303 26.78V29.32L32.6303 33.72V31.08L40.4103 28.04L32.6303 25.02V22.36L42.3303 26.78Z" fill="#F2F2F2"/>
<path d="M67.349 38H73.532C79.688 38 83.414 34.085 83.414 28.442C83.414 22.772 79.526 18.83 73.451 18.83H67.349V38ZM70.616 35.084V21.746H73.505C77.366 21.746 80.039 24.554 80.039 28.442C80.039 32.249 77.393 35.084 73.343 35.084H70.616ZM98.8939 31.25C98.8939 27.416 96.3829 24.635 92.4949 24.635C88.8229 24.635 86.0689 27.362 86.0689 31.412C86.0689 35.516 88.9579 38.216 92.7919 38.216C95.3839 38.216 97.2469 37.163 98.3539 35.732L96.2479 33.923C95.5729 34.76 94.4929 35.462 92.9539 35.462C91.0099 35.462 89.6059 34.328 89.2009 32.465H98.8129C98.8399 32.222 98.8939 31.736 98.8939 31.25ZM92.6569 27.362C94.3849 27.362 95.4649 28.442 95.8429 30.035H89.2549C89.6869 28.307 90.9829 27.362 92.6569 27.362ZM109.942 24.824L106.54 34.22H106.513L103.057 24.824H99.8437L105.082 38H107.971L113.182 24.824H109.942ZM127.31 38H130.712L123.53 18.83H120.344L113.189 38H116.591L118.022 33.869H125.852L127.31 38ZM119.021 31.061L121.91 22.745H121.964L124.88 31.061H119.021ZM133.5 38H136.524V18.128H133.5V38ZM152.709 31.25C152.709 27.416 150.198 24.635 146.31 24.635C142.638 24.635 139.884 27.362 139.884 31.412C139.884 35.516 142.773 38.216 146.607 38.216C149.199 38.216 151.062 37.163 152.169 35.732L150.063 33.923C149.388 34.76 148.308 35.462 146.769 35.462C144.825 35.462 143.421 34.328 143.016 32.465H152.628C152.655 32.222 152.709 31.736 152.709 31.25ZM146.472 27.362C148.2 27.362 149.28 28.442 149.658 30.035H143.07C143.502 28.307 144.798 27.362 146.472 27.362ZM162.983 24.635C161.39 24.635 159.905 25.418 158.879 26.822H158.852V24.824H155.828V38H158.852V31.763C158.852 29.603 160.148 27.956 162.443 27.956C162.659 27.956 163.01 27.983 163.361 28.01V24.635H162.983ZM169.789 38.216C171.517 38.216 172.354 37.865 173.137 37.433L172.354 34.814C171.652 35.192 170.923 35.381 170.41 35.381C169.546 35.381 169.141 34.895 169.141 33.545V27.389H173.002V24.824H169.141V20.126L166.117 20.45V24.824H164.497V27.389H166.117V33.842C166.117 36.785 167.521 38.216 169.789 38.216Z" fill="#11144C"/>
</svg>
